<svg width="100" height="110" viewBox="0 0 100 110" fill="none" xmlns="http://www.w3.org/2000/svg">
<path d="M88.2857 0H11.7143C5.25714 0 0 5.06 0 11.33V85.69C0 91.96 5.25714 97.02 11.7143 97.02H76.5143L73.4857 86.845L80.8 93.39L87.7143 99.55L100 110V11.33C100 5.06 94.7429 0 88.2857 0ZM66.2286 71.83C66.2286 71.83 64.1714 69.465 62.4571 67.375C69.9429 65.34 72.8 60.83 72.8 60.83C70.4571 62.315 68.2286 63.36 66.2286 64.075C63.3714 65.23 60.6286 66 57.9429 66.44C52.4571 67.43 47.4286 67.155 43.1429 66.385C39.8857 65.78 37.0857 64.9 34.7429 64.02C33.4286 63.525 32 62.92 30.5714 62.15C30.4 62.04 30.2286 61.985 30.0571 61.875C29.9429 61.82 29.8857 61.765 29.8286 61.71C28.8 61.16 28.2286 60.775 28.2286 60.775C28.2286 60.775 30.9714 65.175 38.2286 67.265C36.5143 69.355 34.4 71.83 34.4 71.83C21.7714 71.445 16.9714 63.47 16.9714 63.47C16.9714 45.76 25.2 31.405 25.2 31.405C33.4286 25.465 41.2571 25.63 41.2571 25.63L41.8286 26.29C31.5429 29.15 26.8 33.495 26.8 33.495C26.8 33.495 28.0571 32.835 30.1714 31.9C36.2857 29.315 41.1429 28.6 43.1429 28.435C43.4857 28.38 43.7714 28.325 44.1143 28.325C47.6 27.885 51.5429 27.775 55.6571 28.215C61.0857 28.82 66.9143 30.36 72.8571 33.495C72.8571 33.495 68.3429 29.37 58.6286 26.51L59.4286 25.63C59.4286 25.63 67.2571 25.465 75.4857 31.405C75.4857 31.405 83.7143 45.76 83.7143 63.47C83.7143 63.47 78.8571 71.445 66.2286 71.83ZM39.6571 46.145C36.4 46.145 33.8286 48.895 33.8286 52.25C33.8286 55.605 36.4571 58.355 39.6571 58.355C42.9143 58.355 45.4857 55.605 45.4857 52.25C45.5429 48.895 42.9143 46.145 39.6571 46.145ZM60.5143 46.145C57.2571 46.145 54.6857 48.895 54.6857 52.25C54.6857 55.605 57.3143 58.355 60.5143 58.355C63.7714 58.355 66.3429 55.605 66.3429 52.25C66.3429 48.895 63.7714 46.145 60.5143 46.145Z" fill="white"/>
</svg>
